<svg width="24" height="24" viewBox="0 0 24 24" fill="none" xmlns="http://www.w3.org/2000/svg">
<path d="M9.07715 13.2943L14.9314 16.7057" stroke="#999999" stroke-width="2" stroke-linecap="round" stroke-linejoin="round"/>
<path d="M14.9229 7.29431L9.07715 10.7057" stroke="#999999" stroke-width="2" stroke-linecap="round" stroke-linejoin="round"/>
<path d="M17.1427 8.57145C18.5629 8.57145 19.7141 7.42018 19.7141 6.00002C19.7141 4.57986 18.5629 3.42859 17.1427 3.42859C15.7226 3.42859 14.5713 4.57986 14.5713 6.00002C14.5713 7.42018 15.7226 8.57145 17.1427 8.57145Z" stroke="#999999" stroke-width="2" stroke-linecap="round" stroke-linejoin="round"/>
<path d="M6.85756 14.5714C8.27772 14.5714 9.42899 13.4202 9.42899 12C9.42899 10.5799 8.27772 9.42859 6.85756 9.42859C5.4374 9.42859 4.28613 10.5799 4.28613 12C4.28613 13.4202 5.4374 14.5714 6.85756 14.5714Z" stroke="#999999" stroke-width="2" stroke-linecap="round" stroke-linejoin="round"/>
<path d="M17.1427 20.5714C18.5629 20.5714 19.7141 19.4202 19.7141 18C19.7141 16.5799 18.5629 15.4286 17.1427 15.4286C15.7226 15.4286 14.5713 16.5799 14.5713 18C14.5713 19.4202 15.7226 20.5714 17.1427 20.5714Z" stroke="#999999" stroke-width="2" stroke-linecap="round" stroke-linejoin="round"/>
</svg>
