<svg width="240" height="167" viewBox="0 0 240 167" fill="none" xmlns="http://www.w3.org/2000/svg">
<g clip-path="url(#clip0_7752_9685)">
<path d="M45.5314 35.7676C53.1016 35.7676 59.2385 29.6307 59.2385 22.0606C59.2385 14.4904 53.1016 8.35352 45.5314 8.35352C37.9612 8.35352 31.8244 14.4904 31.8244 22.0606C31.8244 29.6307 37.9612 35.7676 45.5314 35.7676Z" fill="#F2D555"/>
<path d="M112.221 73.4872C112.221 105.83 92.9942 117.122 69.2764 117.122C45.5586 117.122 26.3315 105.83 26.3315 73.4872C26.3315 41.1447 69.2764 0 69.2764 0C69.2764 0 112.221 41.1447 112.221 73.4872Z" fill="#ECEEEF"/>
<path d="M67.7119 112.175L68.1518 85.1074L86.4559 51.6207L68.2208 80.8612L68.4185 68.6905L81.0337 44.4633L68.4707 65.4697L68.8263 43.58L82.335 24.2921L68.8824 40.1378L69.1045 0L67.7081 53.1353L67.8229 50.9433L54.0886 29.9207L67.6027 55.1511L66.323 79.5981L66.2849 78.9493L50.4515 56.8262L66.2369 81.2416L66.0769 84.2989L66.0482 84.345L66.0613 84.596L62.8146 146.62H67.1525L67.6729 114.583L83.4193 90.2276L67.7119 112.175Z" fill="#214457"/>
<path d="M240 86.7329C240 113.207 224.262 122.45 204.848 122.45C185.433 122.45 169.695 113.207 169.695 86.7329C169.695 60.259 204.848 26.5801 204.848 26.5801C204.848 26.5801 240 60.259 240 86.7329Z" fill="#ECEEEF"/>
<path d="M203.567 118.401L203.927 96.2446L218.91 68.8342L203.983 92.7688L204.145 82.8066L214.471 62.9753L204.188 80.1701L204.479 62.2524L215.537 46.4643L204.525 59.435L204.707 26.5801L203.564 70.0738L203.658 68.2797L192.416 51.0716L203.478 71.724L202.43 91.735L202.399 91.2038L189.439 73.0949L202.36 93.0802L202.228 95.5828L202.205 95.6205L202.216 95.8259L199.558 146.596H203.109L203.535 120.372L216.424 100.436L203.567 118.401Z" fill="#214457"/>
<path d="M118.778 151.745C184.378 151.745 237.557 149.057 237.557 145.741C237.557 142.424 184.378 139.736 118.778 139.736C53.1789 139.736 0 142.424 0 145.741C0 149.057 53.1789 151.745 118.778 151.745Z" fill="#214457"/>
<path d="M191.137 156.688C202.373 156.688 211.481 156.227 211.481 155.659C211.481 155.091 202.373 154.631 191.137 154.631C179.901 154.631 170.793 155.091 170.793 155.659C170.793 156.227 179.901 156.688 191.137 156.688Z" fill="#214457"/>
<path d="M117.521 166.608C128.756 166.608 137.865 166.147 137.865 165.579C137.865 165.011 128.756 164.551 117.521 164.551C106.285 164.551 97.1767 165.011 97.1767 165.579C97.1767 166.147 106.285 166.608 117.521 166.608Z" fill="#214457"/>
<path d="M61.6698 159.611C87.3391 159.611 108.148 158.559 108.148 157.262C108.148 155.964 87.3391 154.912 61.6698 154.912C36.0004 154.912 15.1913 155.964 15.1913 157.262C15.1913 158.559 36.0004 159.611 61.6698 159.611Z" fill="#214457"/>
<path d="M20.7927 138.199C30.1371 138.199 37.7123 130.623 37.7123 121.279C37.7123 111.935 30.1371 104.359 20.7927 104.359C11.4482 104.359 3.87305 111.935 3.87305 121.279C3.87305 130.623 11.4482 138.199 20.7927 138.199Z" fill="#214457"/>
<path d="M18.0664 134.527L12.9266 134.467L12.8181 143.676L17.9579 143.736L18.0664 134.527Z" fill="#214457"/>
<path d="M28.3458 134.648L23.2061 134.588L23.0976 143.797L28.2373 143.857L28.3458 134.648Z" fill="#214457"/>
<path d="M21.3831 143.883C21.3935 142.996 19.4844 142.255 17.1188 142.227C14.7533 142.199 12.8272 142.895 12.8168 143.782C12.8063 144.67 14.7155 145.411 17.081 145.439C19.4465 145.467 21.3726 144.77 21.3831 143.883Z" fill="#214457"/>
<path d="M31.6651 143.79C31.6756 142.903 29.7664 142.161 27.4009 142.133C25.0354 142.105 23.1093 142.802 23.0988 143.689C23.0884 144.576 24.9975 145.318 27.363 145.345C29.7286 145.373 31.6547 144.677 31.6651 143.79Z" fill="#214457"/>
<path d="M21.2714 122.784C24.4651 122.784 27.0541 120.195 27.0541 117.001C27.0541 113.808 24.4651 111.219 21.2714 111.219C18.0777 111.219 15.4888 113.808 15.4888 117.001C15.4888 120.195 18.0777 122.784 21.2714 122.784Z" fill="white"/>
<path d="M21.2714 118.929C22.336 118.929 23.199 118.066 23.199 117.002C23.199 115.937 22.336 115.074 21.2714 115.074C20.2069 115.074 19.3439 115.937 19.3439 117.002C19.3439 118.066 20.2069 118.929 21.2714 118.929Z" fill="#214457"/>
<path d="M4.56663 105.352C3.27263 99.2178 7.71231 93.0873 14.4829 91.659C21.2535 90.2307 27.7912 94.0455 29.0852 100.18C30.3792 106.314 25.8773 108.517 19.1066 109.946C12.336 111.374 5.86063 111.486 4.56663 105.352Z" fill="#ECEEEF"/>
<path d="M46.6022 130.718C46.6022 142.513 39.5903 146.632 30.9398 146.632C30.7394 146.632 30.5393 146.63 30.3396 146.625C29.9388 146.617 29.5418 146.598 29.1496 146.571C21.3427 146.018 15.2774 141.688 15.2774 130.718C15.2774 119.365 29.7851 105.039 30.8749 103.979L30.8768 103.977C30.9188 103.936 30.9398 103.916 30.9398 103.916C30.9398 103.916 46.6022 118.922 46.6022 130.718Z" fill="#ECEEEF"/>
<path d="M30.3692 144.827L36.0977 136.823L30.3549 145.706L30.3396 146.625C29.9388 146.617 29.5419 146.598 29.1497 146.571L29.7671 134.769L29.7623 134.678L29.7728 134.661L29.831 133.546L24.0739 124.641L29.8491 132.71L29.8625 132.947L30.3291 124.03L25.4003 114.828L30.3892 122.465L30.875 103.979L30.8769 103.916V103.977L30.7958 118.555L35.7026 112.775L30.7757 119.81L30.6459 127.794L35.2274 120.132L30.6269 128.968L30.5544 133.407L37.2056 122.743L30.5295 134.956L30.3692 144.827Z" fill="#214457"/>
<path d="M152.595 138.017C161.939 138.017 169.514 130.442 169.514 121.097C169.514 111.753 161.939 104.178 152.595 104.178C143.25 104.178 135.675 111.753 135.675 121.097C135.675 130.442 143.25 138.017 152.595 138.017Z" fill="#214457"/>
<path d="M154.039 134.545L149.125 136.055L151.831 144.858L156.744 143.348L154.039 134.545Z" fill="#214457"/>
<path d="M163.865 131.525L158.952 133.035L161.657 141.838L166.571 140.328L163.865 131.525Z" fill="#214457"/>
<path d="M156.429 145.236C158.69 144.541 160.312 143.291 160.051 142.443C159.791 141.595 157.746 141.471 155.485 142.166C153.224 142.86 151.602 144.111 151.862 144.959C152.123 145.807 154.167 145.931 156.429 145.236Z" fill="#214457"/>
<path d="M166.192 142.012C168.454 141.317 170.076 140.066 169.815 139.218C169.554 138.37 167.51 138.246 165.249 138.941C162.987 139.636 161.365 140.887 161.626 141.735C161.887 142.583 163.931 142.707 166.192 142.012Z" fill="#214457"/>
<path d="M151.746 122.659C154.939 122.659 157.528 120.07 157.528 116.876C157.528 113.683 154.939 111.094 151.746 111.094C148.552 111.094 145.963 113.683 145.963 116.876C145.963 120.07 148.552 122.659 151.746 122.659Z" fill="white"/>
<path d="M151.746 118.804C152.81 118.804 153.673 117.941 153.673 116.877C153.673 115.812 152.81 114.949 151.746 114.949C150.681 114.949 149.818 115.812 149.818 116.877C149.818 117.941 150.681 118.804 151.746 118.804Z" fill="#214457"/>
<path d="M132.284 110.878C129.181 105.431 131.539 98.2382 137.551 94.8129C143.564 91.3876 150.953 93.0266 154.057 98.4737C157.16 103.921 153.545 107.393 147.532 110.818C141.52 114.243 135.387 116.325 132.284 110.878Z" fill="#ECEEEF"/>
<path d="M122.419 128.558C122.419 139.386 115.983 143.166 108.042 143.166C107.858 143.166 107.674 143.164 107.491 143.16C107.123 143.152 106.759 143.135 106.399 143.11C99.2323 142.603 93.6646 138.628 93.6646 128.558C93.6646 118.136 106.982 104.986 107.982 104.013L107.984 104.011C108.023 103.973 108.042 103.955 108.042 103.955C108.042 103.955 122.419 117.73 122.419 128.558Z" fill="#ECEEEF"/>
<path d="M107.518 141.51L112.777 134.162L107.505 142.317L107.491 143.16C107.123 143.152 106.759 143.135 106.399 143.11L106.965 132.277L106.961 132.193L106.971 132.177L107.024 131.154L101.739 122.98L107.041 130.387L107.053 130.604L107.481 122.419L102.957 113.972L107.536 120.982L107.982 104.013L107.984 103.955V104.011L107.91 117.393L112.414 112.088L107.891 118.545L107.772 125.874L111.978 118.841L107.755 126.952L107.688 131.026L113.794 121.237L107.665 132.448L107.518 141.51Z" fill="#214457"/>
<path d="M178.961 133.075C178.961 144.871 171.949 148.989 163.298 148.989C163.098 148.989 162.898 148.987 162.698 148.983C162.297 148.974 161.9 148.955 161.508 148.928C153.701 148.376 147.636 144.045 147.636 133.075C147.636 121.722 162.144 107.397 163.234 106.336L163.235 106.335C163.277 106.293 163.298 106.273 163.298 106.273C163.298 106.273 178.961 121.279 178.961 133.075Z" fill="#ECEEEF"/>
<path d="M162.728 147.185L168.456 139.18L162.713 148.064L162.698 148.983C162.297 148.974 161.9 148.955 161.508 148.928L162.126 137.127L162.121 137.035L162.131 137.018L162.19 135.903L156.432 126.998L162.208 135.068L162.221 135.304L162.688 126.388L157.759 117.185L162.748 124.823L163.234 106.336L163.235 106.273V106.335L163.154 120.912L168.061 115.133L163.134 122.168L163.005 130.151L167.586 122.489L162.985 131.326L162.913 135.764L169.564 125.1L162.888 137.313L162.728 147.185Z" fill="#214457"/>
<path d="M153.669 131.226C154.298 129.901 151.385 127.203 147.164 125.201C142.942 123.199 139.011 122.65 138.382 123.975C137.753 125.301 140.666 127.998 144.888 130C149.109 132.002 153.041 132.551 153.669 131.226Z" fill="#214457"/>
<path d="M23.4471 129.675C23.9928 128.314 20.9194 125.801 16.5826 124.063C12.2458 122.325 8.28771 122.019 7.74201 123.381C7.19631 124.742 10.2696 127.255 14.6065 128.993C18.9433 130.731 22.9014 131.037 23.4471 129.675Z" fill="#214457"/>
</g>
<defs>
<clipPath id="clip0_7752_9685">
<rect width="240" height="166.608" fill="white"/>
</clipPath>
</defs>
</svg>
